<?xml version="1.0" standalone="no"?>
<!DOCTYPE svg PUBLIC "-//W3C//DTD SVG 20010904//EN"
 "http://www.w3.org/TR/2001/REC-SVG-20010904/DTD/svg10.dtd">
<svg version="1.0" xmlns="http://www.w3.org/2000/svg"
 width="512.000000pt" height="512.000000pt" viewBox="0 0 512.000000 512.000000"
 preserveAspectRatio="xMidYMid meet">

<g transform="translate(0.000000,512.000000) scale(0.100000,-0.100000)"
fill="#000000" stroke="none">
<path d="M4120 4250 c-14 -4 -24 -13 -22 -21 2 -8 60 -192 129 -409 188 -593
195 -617 315 -1005 122 -394 132 -447 103 -536 -20 -60 -103 -151 -165 -182
-85 -42 -1015 -406 -1021 -399 -6 6 -136 415 -295 923 l-68 216 -65 -19 c-109
-32 -1020 -317 -1103 -345 l-76 -25 14 -42 c42 -128 384 -1226 384 -1233 0 -7
-185 -97 -242 -118 -14 -6 -24 17 -61 137 -25 79 -125 395 -222 703 -362 1147
-527 1676 -524 1679 5 4 1479 342 1532 352 20 3 39 9 42 13 2 4 -18 50 -45
102 -27 52 -50 102 -50 111 0 26 -10 27 -90 11 -298 -60 -1732 -366 -1761
-376 l-36 -12 79 -259 c43 -143 77 -260 76 -261 -2 -1 -160 -44 -353 -94 -403
-106 -437 -117 -431 -140 3 -9 88 -281 190 -606 101 -324 210 -673 241 -775
209 -680 238 -758 332 -875 58 -72 154 -139 231 -162 119 -35 311 -9 450 61
26 13 205 90 397 171 193 81 508 214 700 295 193 81 701 295 1130 475 429 180
807 341 840 359 77 40 154 117 188 187 31 63 50 158 41 209 -10 59 -298 977
-327 1042 l-12 26 -62 -25 c-35 -14 -63 -30 -63 -37 -1 -6 -64 189 -141 434
-77 244 -143 447 -147 451 -4 3 -18 3 -32 -1z m-3018 -1497 c31 -104 122 -411
203 -683 80 -272 191 -646 246 -830 59 -201 95 -338 90 -343 -5 -5 -58 -8
-118 -5 -96 3 -115 7 -176 36 -83 39 -169 123 -210 205 -16 31 -82 229 -148
439 -66 211 -165 523 -219 693 -151 474 -180 568 -176 573 6 5 408 100 432
101 18 1 27 -19 76 -186z"/>
<path d="M4058 4233 c7 -3 16 -2 19 1 4 3 -2 6 -13 5 -11 0 -14 -3 -6 -6z"/>
<path d="M4018 4223 c7 -3 16 -2 19 1 4 3 -2 6 -13 5 -11 0 -14 -3 -6 -6z"/>
<path d="M3968 4213 c7 -3 16 -2 19 1 4 3 -2 6 -13 5 -11 0 -14 -3 -6 -6z"/>
<path d="M3928 4203 c7 -3 16 -2 19 1 4 3 -2 6 -13 5 -11 0 -14 -3 -6 -6z"/>
<path d="M3838 4183 c7 -3 16 -2 19 1 4 3 -2 6 -13 5 -11 0 -14 -3 -6 -6z"/>
<path d="M3798 4173 c7 -3 16 -2 19 1 4 3 -2 6 -13 5 -11 0 -14 -3 -6 -6z"/>
<path d="M3708 4153 c7 -3 16 -2 19 1 4 3 -2 6 -13 5 -11 0 -14 -3 -6 -6z"/>
<path d="M3668 4143 c7 -3 16 -2 19 1 4 3 -2 6 -13 5 -11 0 -14 -3 -6 -6z"/>
<path d="M3578 4123 c7 -3 16 -2 19 1 4 3 -2 6 -13 5 -11 0 -14 -3 -6 -6z"/>
<path d="M3538 4113 c7 -3 16 -2 19 1 4 3 -2 6 -13 5 -11 0 -14 -3 -6 -6z"/>
<path d="M3448 4093 c7 -3 16 -2 19 1 4 3 -2 6 -13 5 -11 0 -14 -3 -6 -6z"/>
<path d="M3408 4083 c7 -3 16 -2 19 1 4 3 -2 6 -13 5 -11 0 -14 -3 -6 -6z"/>
<path d="M3318 4063 c7 -3 16 -2 19 1 4 3 -2 6 -13 5 -11 0 -14 -3 -6 -6z"/>
<path d="M3278 4053 c7 -3 16 -2 19 1 4 3 -2 6 -13 5 -11 0 -14 -3 -6 -6z"/>
<path d="M3188 4033 c7 -3 16 -2 19 1 4 3 -2 6 -13 5 -11 0 -14 -3 -6 -6z"/>
<path d="M3148 4023 c7 -3 16 -2 19 1 4 3 -2 6 -13 5 -11 0 -14 -3 -6 -6z"/>
<path d="M3880 3985 c-163 -40 -237 -118 -216 -229 16 -83 85 -137 198 -156
90 -14 116 -25 129 -54 28 -61 -17 -101 -103 -93 -38 3 -48 1 -48 -11 0 -11
-8 -13 -31 -8 -31 6 -31 5 -25 -25 3 -17 6 -44 6 -60 0 -29 1 -29 59 -29 75 0
204 39 258 79 44 32 73 90 73 144 0 49 -46 133 -85 157 -19 12 -73 28 -120 37
-98 18 -127 36 -127 78 0 39 27 57 80 53 30 -2 42 1 42 11 0 9 9 12 31 9 l31
-5 -5 50 c-2 27 -11 53 -18 58 -19 12 -64 10 -129 -6z"/>
<path d="M2838 3953 c7 -3 16 -2 19 1 4 3 -2 6 -13 5 -11 0 -14 -3 -6 -6z"/>
<path d="M3585 3905 c-5 -2 -37 -11 -70 -21 -33 -9 -64 -20 -68 -24 -4 -4 -1
-60 7 -126 9 -65 16 -127 16 -139 0 -11 -31 39 -68 110 -77 149 -65 142 -199
103 -64 -18 -72 -23 -68 -42 2 -12 9 -70 15 -131 6 -60 13 -126 15 -145 4 -25
-16 7 -68 108 -41 78 -79 148 -85 154 -7 7 -37 3 -103 -16 -51 -15 -95 -29
-97 -31 -2 -1 73 -135 167 -297 164 -284 171 -293 199 -291 26 2 169 47 177
55 2 2 -3 62 -11 133 -7 72 -14 139 -14 150 0 11 32 -41 71 -115 38 -74 71
-136 73 -137 1 -2 47 11 100 28 l98 30 -5 57 c-4 31 -13 167 -22 302 -9 135
-18 255 -21 268 -4 20 -15 25 -39 17z"/>
<path d="M2595 3659 c-104 -26 -206 -52 -226 -58 l-37 -11 13 -43 c74 -245
189 -604 195 -611 5 -4 82 13 172 39 234 68 288 86 288 100 0 6 -7 33 -16 59
-12 35 -20 45 -33 42 -45 -15 -232 -66 -239 -66 -8 0 -52 125 -52 147 0 6 12
14 28 17 15 4 67 18 115 33 67 20 86 30 82 41 -3 8 -10 34 -16 57 l-11 42
-111 -28 c-62 -16 -117 -29 -123 -29 -10 0 -44 98 -44 126 0 5 33 18 73 28 39
10 94 26 120 34 46 15 48 16 41 46 -3 17 -11 43 -18 57 l-11 25 -190 -47z"/>
<path d="M2205 3565 c-5 -2 -42 -13 -81 -25 l-72 -21 54 -166 53 -166 -72 69
c-40 38 -108 104 -152 146 l-80 77 -95 -25 c-52 -14 -105 -28 -118 -31 -12 -3
-25 -9 -28 -14 -3 -5 36 -141 86 -302 51 -160 99 -314 107 -341 14 -47 15 -48
46 -42 82 16 167 49 167 65 0 9 -25 92 -55 186 -30 93 -53 170 -51 172 1 1 76
-68 165 -154 l163 -156 106 32 c59 18 108 34 109 35 1 1 -44 150 -101 332
-105 337 -109 344 -151 329z"/>
<path d="M4295 3143 c-20 -5 -814 -255 -937 -296 -37 -12 -68 -24 -68 -27 0
-3 17 -58 38 -123 l37 -117 510 171 c281 95 513 175 518 178 10 10 -58 222
-71 220 -4 -1 -16 -3 -27 -6z"/>
<path d="M4150 2679 c-600 -210 -715 -251 -724 -259 -7 -7 58 -240 67 -240 14
0 1017 367 1025 375 5 5 -69 225 -76 225 -4 -1 -135 -46 -292 -101z"/>
</g>
</svg>
